<svg id="Capa_1" enable-background="new 0 0 515.556 515.556" height="16px" viewBox="0 0 515.556 515.556" width="16px" xmlns="http://www.w3.org/2000/svg"><path d="m386.667 193.333h-225.556v-32.222c0-53.305 43.361-96.667 96.667-96.667s96.667 43.361 96.667 96.667h64.444c0-88.831-72.28-161.111-161.111-161.111s-161.111 72.28-161.111 161.111v41.185c-19.169 11.177-32.222 31.731-32.222 55.482v193.333c0 35.542 28.902 64.444 64.444 64.444h257.778c35.542 0 64.444-28.902 64.444-64.444v-193.333c0-35.542-28.902-64.445-64.444-64.445zm-96.667 180.79v44.766h-64.444v-44.766c-9.822-8.846-16.111-21.531-16.111-35.79 0-26.694 21.639-48.333 48.333-48.333s48.333 21.639 48.333 48.333c0 14.259-6.289 26.944-16.111 35.79z"/></svg>
